<?xml version="1.0" encoding="UTF-8" standalone="no"?>
<!-- Created with Inkscape (http://www.inkscape.org/) -->

<svg
   xmlns:dc="http://purl.org/dc/elements/1.1/"
   xmlns:cc="http://creativecommons.org/ns#"
   xmlns:rdf="http://www.w3.org/1999/02/22-rdf-syntax-ns#"
   xmlns:svg="http://www.w3.org/2000/svg"
   xmlns="http://www.w3.org/2000/svg"
   xmlns:sodipodi="http://sodipodi.sourceforge.net/DTD/sodipodi-0.dtd"
   xmlns:inkscape="http://www.inkscape.org/namespaces/inkscape"
   width="210mm"
   height="297mm"
   viewBox="0 0 744.09448819 1052.3622047"
   id="svg2"
   version="1.1"
   inkscape:version="0.91 r13725"
   sodipodi:docname="Lougou.svg">
  <defs
     id="defs4" />
  <sodipodi:namedview
     id="base"
     pagecolor="#ffffff"
     bordercolor="#666666"
     borderopacity="1.0"
     inkscape:pageopacity="0.0"
     inkscape:pageshadow="2"
     inkscape:zoom="0.7"
     inkscape:cx="371.36634"
     inkscape:cy="474.449"
     inkscape:document-units="px"
     inkscape:current-layer="layer1"
     showgrid="false"
     inkscape:window-width="1366"
     inkscape:window-height="705"
     inkscape:window-x="-8"
     inkscape:window-y="-8"
     inkscape:window-maximized="1" />
  <metadata
     id="metadata7">
    <rdf:RDF>
      <cc:Work
         rdf:about="">
        <dc:format>image/svg+xml</dc:format>
        <dc:type
           rdf:resource="http://purl.org/dc/dcmitype/StillImage" />
        <dc:title></dc:title>
      </cc:Work>
    </rdf:RDF>
  </metadata>
  <g
     inkscape:label="Ebene 1"
     inkscape:groupmode="layer"
     id="layer1">
    <g
       transform="scale(1.5161093,0.65958305)"
       style="font-style:normal;font-weight:normal;font-size:970.63409424px;line-height:125%;font-family:sans-serif;letter-spacing:0px;word-spacing:0px;fill:#000000;fill-opacity:1;stroke:none;stroke-width:1px;stroke-linecap:butt;stroke-linejoin:miter;stroke-opacity:1"
       id="text3336">
      <path
         d="m 60.626953,265.08789 0,465.4668 72.094867,0 0.17857,-173.49414 212.27344,0 c 76.64518,0 140.11566,-3.9596 190.41406,-11.87891 50.29839,-8.12771 93.8899,-20.21664 130.77539,-36.26367 29.70001,-12.92098 52.69533,-28.13282 68.98242,-45.63867 16.76614,-17.71425 25.14844,-36.88764 25.14844,-57.51953 0,-27.09239 -11.25696,-49.49669 -33.77148,-67.21094 -22.03549,-17.71425 -53.41311,-32.50971 -94.13086,-44.38867 -34.49033,-10.00335 -74.01054,-17.29795 -118.56055,-21.88282 -44.55,-4.79327 -98.91907,-7.18945 -163.10937,-7.18945 z m 70.844867,53.14258 212.26451,0 c 45.02904,0 129.29689,1.45736 158.51786,4.375 29.70001,2.70924 54.61694,7.29537 77.61049,13.75586 26.34679,7.5025 41.70229,17.1933 54.63616,29.07226 12.93387,11.87897 22.25753,25.84165 22.25753,41.88868 0,13.75459 -7.64759,26.15386 -17.22824,37.19921 -9.10162,11.04536 -22.05218,21.57089 -44.5667,31.57422 -22.51452,9.79494 -50.30609,16.9835 -86.23352,21.56836 -35.92739,4.37646 -128.34759,6.56641 -185.83147,6.56641 l -192.85519,0 z"
         transform="scale(0.65958305,1.5161093)"
         id="path3349"
         inkscape:connector-curvature="0"
         sodipodi:nodetypes="ccccscscscccsccsccsscccscc" />
    </g>
    <flowRoot
       xml:space="preserve"
       id="flowRoot3340"
       style="fill:black;stroke:none;stroke-opacity:1;stroke-width:1px;stroke-linejoin:miter;stroke-linecap:butt;fill-opacity:1;font-family:sans-serif;font-style:normal;font-weight:normal;font-size:40px;line-height:125%;letter-spacing:0px;word-spacing:0px"><flowRegion
         id="flowRegion3342"><rect
           id="rect3344"
           width="64.649765"
           height="54.548237"
           x="333.35034"
           y="510.92044" /></flowRegion><flowPara
         id="flowPara3346"></flowPara></flowRoot>    <text
       xml:space="preserve"
       style="font-style:normal;font-weight:normal;font-size:40px;line-height:125%;font-family:sans-serif;letter-spacing:0px;word-spacing:0px;fill:#000000;fill-opacity:1;stroke:none;stroke-width:1px;stroke-linecap:butt;stroke-linejoin:miter;stroke-opacity:1"
       x="179.73892"
       y="730.55463"
       id="text3355"
       sodipodi:linespacing="125%"><tspan
         sodipodi:role="line"
         id="tspan3357"
         x="179.73892"
         y="730.55463"
         style="font-size:180px">AAL</tspan></text>
    <text
       xml:space="preserve"
       style="font-style:normal;font-weight:normal;font-size:40px;line-height:125%;font-family:sans-serif;letter-spacing:0px;word-spacing:0px;fill:#000000;fill-opacity:1;stroke:none;stroke-width:1px;stroke-linecap:butt;stroke-linejoin:miter;stroke-opacity:1"
       x="47.14286"
       y="795.50507"
       id="text3359"
       sodipodi:linespacing="125%"><tspan
         sodipodi:role="line"
         id="tspan3361"
         x="47.14286"
         y="795.50507"
         style="font-size:56.25px;line-height:125%;letter-spacing:6.20000124px"
         dx="0">FINANCIAL SERVICES</tspan></text>
  </g>
</svg>
